<svg id="Background" xmlns="http://www.w3.org/2000/svg" xmlns:xlink="http://www.w3.org/1999/xlink" width="1121" height="1080" viewBox="0 0 1121 1080">
  <defs>
    <linearGradient id="linear-gradient" x1="1.307" y1="0.019" x2="-0.423" y2="1.305" gradientUnits="objectBoundingBox">
      <stop offset="0" stop-color="#00c2ef"/>
      <stop offset="0.144" stop-color="#00baef"/>
      <stop offset="0.354" stop-color="#00a7f1"/>
      <stop offset="0.605" stop-color="#0087f3"/>
      <stop offset="0.884" stop-color="#005bf7"/>
      <stop offset="1" stop-color="#0047f9"/>
    </linearGradient>
    <clipPath id="clip-path">
      <rect id="mask" width="1121" height="1080" fill="none"/>
    </clipPath>
  </defs>
  <rect id="Background-2" data-name="Background" width="1118" height="1080" fill="url(#linear-gradient)"/>
  <g id="Watermark" clip-path="url(#clip-path)">
    <g id="Water_mark" data-name="Water mark" transform="translate(-243.887 -157.336)" opacity="0.16" style="mix-blend-mode: overlay;isolation: isolate">
      <path id="Path_10" data-name="Path 10" d="M901.031,418.965c-6.975-163.571-141.865-293.919-306.993-293.919-169.768,0-307.427,137.545-307.427,307.321v3.1c0,169.669,137.66,307.321,307.427,307.321A307.226,307.226,0,0,0,901.031,447.318c.222-3.984.328-7.861.328-11.853v-3.1C901.358,427.826,901.252,423.4,901.031,418.965Zm-154.71,16.5c0,83.945-68.338,152.275-152.39,152.275-83.945,0-152.276-68.33-152.276-152.275v-3.1c0-83.945,68.33-152.275,152.276-152.275,84.052,0,152.39,68.33,152.39,152.275Z" transform="translate(-110.612 -4.209)" fill="#c8f5ff"/>
      <path id="Path_11" data-name="Path 11" d="M1424.219,267.132a307.25,307.25,0,0,0-259.041-142.086c-3.32,0-6.648,0-9.968.328-160.693,4.984-290.156,133.34-297.026,293.591.23,4.435.336,8.861.336,13.4v3.1c0,3.992-.106,7.869-.336,11.853,6.1,164.234,141.209,295.468,306.993,295.468a306,306,0,0,0,122.266-25.362c-78.076,234.565-299.681,404.226-560.157,404.226-175.128,0-332.51-77.109-440.677-198.809v209.507A741.6,741.6,0,0,0,727.287,1276.7c205.769,0,392.151-83.388,526.934-218.277C1380.135,932.5,1461.1,761.729,1471.392,572.24l1.107-136.775v-3.1A305.463,305.463,0,0,0,1424.219,267.132ZM1317.453,435.465a155.071,155.071,0,0,1-3.435,32.337c-14.837,68.445-75.855,119.938-148.841,119.938-83.945,0-152.275-68.33-152.275-152.275v-3.1c0-83.945,68.33-152.275,152.275-152.275a152.414,152.414,0,0,1,152.275,152.275Z" transform="translate(-110.612 -4.209)" fill="#c8f5ff"/>
    </g>
  </g>
</svg>
