<svg xmlns="http://www.w3.org/2000/svg" width="130.83" height="70.246" viewBox="0 0 130.83 70.246">
  <g id="Brand_mark" data-name="Brand mark" transform="translate(-192.704 -96.63)">
    <g id="blog" transform="translate(192.704 96.63)">
      <path id="Path_6" data-name="Path 6" d="M317.783,139.958a15.594,15.594,0,0,0-31.173.68v.157a15.592,15.592,0,0,0,31.173.6c.011-.2.017-.4.017-.6v-.157C317.8,140.408,317.794,140.183,317.783,139.958Zm-7.849.837a7.729,7.729,0,0,1-15.457,0v-.157a7.729,7.729,0,0,1,15.457,0Z" transform="translate(-247.557 -113.229)" fill="#00c2ef"/>
      <path id="Path_7" data-name="Path 7" d="M208.3,108.446h0a15.517,15.517,0,0,0-7.728,2.052V96.63H192.7v27.565A15.594,15.594,0,0,0,208.3,139.788h0a15.594,15.594,0,0,0,15.594-15.594v-.156A15.594,15.594,0,0,0,208.3,108.446Zm7.727,15.749a7.728,7.728,0,1,1-15.455-.055v-.045a7.728,7.728,0,1,1,15.455-.055Z" transform="translate(-192.704 -96.63)" fill="#00c2ef"/>
      <rect id="Rectangle_2" data-name="Rectangle 2" width="7.866" height="42.163" transform="translate(31.188 0)" fill="#00c2ef"/>
      <path id="Path_8" data-name="Path 8" d="M344.326,132.255a15.588,15.588,0,0,0-13.142-7.209c-.168,0-.337,0-.506.017a15.575,15.575,0,0,0-15.07,14.9c.012.225.017.45.017.68v.157c0,.2-.005.4-.017.6a15.588,15.588,0,0,0,21.778,13.7,29.9,29.9,0,0,1-50.777,10.422v10.629a37.806,37.806,0,0,0,60.11-28.417l.056-6.939v-.157A15.5,15.5,0,0,0,344.326,132.255Zm-5.417,8.54a7.87,7.87,0,0,1-.174,1.641,7.727,7.727,0,0,1-15.277-1.641v-.157a7.726,7.726,0,0,1,15.451,0Z" transform="translate(-247.557 -113.229)" fill="#00c2ef"/>
    </g>
    <g id="it" transform="translate(295.942 96.63)">
      <path id="Path_9" data-name="Path 9" d="M484.567,119.523v-7.866h-8.316V99.024h-7.866v28.6a13.564,13.564,0,0,0,13.565,13.564h2.617v-7.866H481.95a5.7,5.7,0,0,1-5.7-5.7v-8.1Z" transform="translate(-456.975 -98.028)" fill="#0047f9"/>
      <circle id="Ellipse_2" data-name="Ellipse 2" cx="3.933" cy="3.933" r="3.933" transform="translate(0)" fill="#0047f9"/>
      <rect id="Rectangle_3" data-name="Rectangle 3" width="7.866" height="28.534" transform="translate(0 13.629)" fill="#0047f9"/>
    </g>
  </g>
</svg>
