<svg xmlns="http://www.w3.org/2000/svg" width="268" height="143.896" viewBox="0 0 268 143.896">
  <g id="Brand_mark" data-name="Brand mark" transform="translate(-192.704 -96.63)">
    <g id="Group_3" data-name="Group 3" transform="translate(192.704 96.63)">
      <path id="Path_6" data-name="Path 6" d="M350.466,155.592a31.943,31.943,0,0,0-63.856,1.393v.322a31.94,31.94,0,0,0,63.856,1.232c.023-.414.034-.817.034-1.232v-.322C350.5,156.513,350.489,156.053,350.466,155.592Zm-16.079,1.715a15.832,15.832,0,0,1-31.663,0v-.322a15.832,15.832,0,0,1,31.663,0Z" transform="translate(-206.612 -100.838)" fill="#e6fbff"/>
      <path id="Path_7" data-name="Path 7" d="M224.648,120.834h0a31.786,31.786,0,0,0-15.83,4.2V96.63H192.7V153.1a31.943,31.943,0,0,0,31.944,31.943h0A31.943,31.943,0,0,0,256.59,153.1v-.319A31.943,31.943,0,0,0,224.648,120.834ZM240.477,153.1a15.83,15.83,0,1,1-31.659-.113v-.092a15.83,15.83,0,1,1,31.659-.113Z" transform="translate(-192.704 -96.63)" fill="#e6fbff"/>
      <rect id="Rectangle_2" data-name="Rectangle 2" width="16.114" height="86.369" transform="translate(63.886 0)" fill="#e6fbff"/>
      <path id="Path_8" data-name="Path 8" d="M404.84,139.813a31.932,31.932,0,0,0-26.922-14.767c-.345,0-.691,0-1.036.034a31.905,31.905,0,0,0-30.869,30.512c.024.461.035.921.035,1.393v.322c0,.415-.011.818-.035,1.232a31.932,31.932,0,0,0,44.612,28.072A61.245,61.245,0,0,1,286.61,207.959v21.774a77.445,77.445,0,0,0,123.132-58.211l.115-14.215v-.322A31.746,31.746,0,0,0,404.84,139.813Zm-11.1,17.495a16.117,16.117,0,0,1-.357,3.361,15.828,15.828,0,0,1-31.294-3.361v-.322a15.826,15.826,0,0,1,31.651,0Z" transform="translate(-206.612 -100.838)" fill="#e6fbff"/>
    </g>
    <g id="Group_4" data-name="Group 4" transform="translate(404.182 96.63)">
      <path id="Path_9" data-name="Path 9" d="M501.533,141.016V124.9H484.5V99.024H468.385v58.583a27.786,27.786,0,0,0,27.786,27.785h5.362V169.28h-5.362A11.673,11.673,0,0,1,484.5,157.607V141.016Z" transform="translate(-445.012 -96.985)" fill="#e6fbff"/>
      <circle id="Ellipse_2" data-name="Ellipse 2" cx="8.057" cy="8.057" r="8.057" transform="translate(0)" fill="#e6fbff"/>
      <rect id="Rectangle_3" data-name="Rectangle 3" width="16.114" height="58.451" transform="translate(0 27.918)" fill="#e6fbff"/>
    </g>
  </g>
</svg>
