<svg xmlns="http://www.w3.org/2000/svg" width="26.667" height="24" viewBox="0 0 26.667 24">
  <path id="Path_2907" data-name="Path 2907" d="M429.854,1839.039l.759-3.852A2.675,2.675,0,0,0,428,1832h-7.333v-1.437l3.427-7.9H434.88a.468.468,0,0,1,.454.453v10.457ZM428.667,1844l8.547-8.547a2.664,2.664,0,0,0,.786-1.891v-10.443a3.124,3.124,0,0,0-3.12-3.119h-10.8a2.676,2.676,0,0,0-2.293,1.293l-3.56,8.2a2.632,2.632,0,0,0-.227,1.068V1832a2.676,2.676,0,0,0,2.667,2.67H428l-1.227,6.2a1.34,1.34,0,0,0,.107.881,6.34,6.34,0,0,0,1.173,1.625ZM442,1834.67h2.667V1820H442a1.337,1.337,0,0,0-1.333,1.336v12A1.338,1.338,0,0,0,442,1834.67Z" transform="translate(-418 -1820)" fill="#41425e"/>
</svg>
