<svg xmlns="http://www.w3.org/2000/svg" xmlns:xlink="http://www.w3.org/1999/xlink" version="1.1" width="1000" height="1000" viewBox="0 0 1000 1000" xml:space="preserve">
<desc>Created with Fabric.js 3.5.0</desc>
<defs>
</defs>
<rect x="0" y="0" width="100%" height="100%" fill="#ffffff"/>
<g transform="matrix(-34.0905 0 0 -34.0905 499.9998 499.9998)" id="420540">
<path style="stroke: none; stroke-width: 1; stroke-dasharray: none; stroke-linecap: butt; stroke-dashoffset: 0; stroke-linejoin: miter; stroke-miterlimit: 4; is-custom-font: none; font-file-url: none; fill: rgb(65,66,94); fill-rule: nonzero; opacity: 1;" vector-effect="non-scaling-stroke" transform=" translate(-431.3335, -1832)" d="M 429.854 1839.039 l 0.759 -3.852 A 2.675 2.675 0 0 0 428 1832 h -7.333 v -1.437 l 3.427 -7.9 H 434.88 a 0.468 0.468 0 0 1 0.454 0.453 v 10.457 Z M 428.667 1844 l 8.547 -8.547 a 2.664 2.664 0 0 0 0.786 -1.891 v -10.443 a 3.124 3.124 0 0 0 -3.12 -3.119 h -10.8 a 2.676 2.676 0 0 0 -2.293 1.293 l -3.56 8.2 a 2.632 2.632 0 0 0 -0.227 1.068 V 1832 a 2.676 2.676 0 0 0 2.667 2.67 H 428 l -1.227 6.2 a 1.34 1.34 0 0 0 0.107 0.881 a 6.34 6.34 0 0 0 1.173 1.625 Z M 442 1834.67 h 2.667 V 1820 H 442 a 1.337 1.337 0 0 0 -1.333 1.336 v 12 A 1.338 1.338 0 0 0 442 1834.67 Z" stroke-linecap="round"/>
</g>
</svg>