<svg xmlns="http://www.w3.org/2000/svg" width="20" height="20" viewBox="0 0 20 20">
  <g id="Group_29" data-name="Group 29" transform="translate(0.175)">
    <circle id="Ellipse_12" data-name="Ellipse 12" cx="10" cy="10" r="10" transform="translate(-0.175)" fill="#0047f9"/>
    <path id="Path_2913" data-name="Path 2913" d="M3558.634,918.26a.686.686,0,0,1-.481-.2l-.017-.017c-.164-.165-2.161-2.161-2.936-2.936a.68.68,0,0,1,.962-.963l1.476,1.476.951.951q.2-.208.475-.491c.492-.5,1.177-1.182,2.037-2.024,1.46-1.432,2.939-2.855,2.954-2.87a.68.68,0,1,1,.944.981c-2.508,2.414-5.305,5.163-5.749,5.7a.673.673,0,0,1-.615.393Z" transform="translate(-3550.104 -904.631)" fill="#fff"/>
  </g>
</svg>
